<?xml version="1.0" encoding="utf-8"?>
<!-- Generator: Adobe Illustrator 24.0.3, SVG Export Plug-In . SVG Version: 6.00 Build 0)  -->
<svg version="1.1" id="Calque_1" xmlns="http://www.w3.org/2000/svg" xmlns:xlink="http://www.w3.org/1999/xlink" x="0px" y="0px"
	 viewBox="0 0 250 250" style="enable-background:new 0 0 250 250;" xml:space="preserve">
<style type="text/css">
	.st0{fill:url(#SVGID_1_);}
	.st1{fill:url(#SVGID_2_);}
</style>
<g>
	
		<linearGradient id="SVGID_1_" gradientUnits="userSpaceOnUse" x1="15.0018" y1="144.7465" x2="246.3019" y2="-70.4506" gradientTransform="matrix(1 0 0 -1 0 248.9449)">
		<stop  offset="0" style="stop-color:#E671DA"/>
		<stop  offset="1" style="stop-color:#A55BDB"/>
	</linearGradient>
	<path class="st0" d="M73.7,87.7c16.7,0,28.9,4.2,36.7,12.7c8,8.4,11.9,19.4,11.9,33c0,4.6-0.5,9.6-1.5,15.4
		c-2.3,12.5-6.6,23.5-13,33c-6.4,9.3-14.2,16.6-23.6,21.8c-9.2,5.1-19.2,7.6-29.9,7.6c-17.1,0-29.7-4.2-37.8-12.7
		c-8.1-8.6-12.2-19.9-12.2-34c0-4.7,0.5-10,1.5-15.9c2.3-12,6.8-22.5,13.3-31.6c6.6-9.3,14.6-16.6,24.1-21.5
		C52.9,90.2,63,87.7,73.7,87.7z M73.2,107.9c-2.6,0-5.3,2.9-8.3,8.8c-2.8,5.6-6.2,16.4-10.2,32.3s-5.8,27-5.8,33.5
		c0,3.4,0.4,5.6,1.2,6.9c0.8,1,2,1.5,3.5,1.5c2.6,0.3,5.1-2.4,7.9-8.3c2.8-5.7,6.4-17.1,10.4-34c3.8-14.9,5.7-25.5,5.7-32.3
		c0-3.2-0.4-5.4-1.2-6.6C75.7,108.6,74.7,107.9,73.2,107.9z"/>
	
		<linearGradient id="SVGID_2_" gradientUnits="userSpaceOnUse" x1="56.6748" y1="213.9549" x2="295.5677" y2="-8.3061" gradientTransform="matrix(1 0 0 -1 0 248.9449)">
		<stop  offset="0" style="stop-color:#E671DA"/>
		<stop  offset="1" style="stop-color:#A55BDB"/>
	</linearGradient>
	<path class="st1" d="M232.4,177.2c-0.3,0.7-0.4,1.5-0.4,2.7c0,1,0.1,1.9,0.5,2.5c0.5,0.7,1.1,0.8,1.9,0.8c1.5,0,2.7-0.8,3.7-2.4
		c1.1-1.7,1.9-2.5,2.2-2.5c0.7,0,1.1,0.5,1.5,1.5c0.4,0.8,0.5,2,0.5,3.4c0.1,4.4-1.1,8.8-3.5,13c-2.4,4.1-6.1,7.6-10.8,10.3
		c-4.6,2.5-10.3,3.9-16.9,3.9c-8.1,0-14.5-2.4-19.2-6.9c-4.7-4.7-7.2-11-7.3-18.8c0-5.6,1.1-12,3.3-19.1l10.2-33
		c0.7-2,0.9-3.5,0.9-4.7c0-2-0.5-3.5-1.6-4.6c-0.9-1.2-2.2-1.9-3.7-1.9c-2.3,0-4.7,1.4-7.2,4.1c-2.3,2.5-4.2,6.9-5.7,12.8V138
		l-11.5,46.5c-0.4,1.9-0.5,3.4-0.5,4.7c0,2,0.3,3.5,0.9,4.7c0.7,1,1.5,2.2,2.6,3.2c0.8,1,1.5,2,1.9,2.7c0.4,0.7,0.4,1.5,0.1,2.5
		c-0.7,2-1.9,3.4-3.7,4.4c-1.9,0.8-4.6,1.4-8.4,1.4h-41.9c-3.3,0-5.6-0.7-7-1.9c-1.5-1.4-1.9-3.2-1.5-5.2c0.5-1.9,1.8-3.4,3.8-4.7
		c1.9-1.2,3.4-2.7,4.6-4.4s2.3-4.4,3.1-7.9l27.9-114.4c0.4-1.4,0.5-2.5,0.5-3.4c0-1.7-0.4-3-1.1-4.1c-0.7-1-1.5-2.2-2.6-3.2
		c-1.2-1.2-2.2-2.4-2.7-3.2s-0.5-2.2-0.1-3.7c0.7-3.5,4.6-6.6,11.5-9.1c7-2.5,14.2-3.9,21.8-3.9c7,0,12.3,1.7,15.6,5.1
		c3.4,3.4,5.1,7.9,5.1,13.7c0,3.4-0.4,6.6-1.2,9.8l-9.9,40.4c4.7-7.8,9.8-13.2,15-16.2c5.4-3,11.2-4.6,17.5-4.6
		c7.5,0,13.4,2.9,18,8.4c4.6,5.6,7,13,7,22c0,4.7-0.7,9.5-1.9,14L232.4,177.2z"/>
</g>
</svg>
