<?xml version="1.0" encoding="utf-8"?>
<!-- Generator: Adobe Illustrator 24.0.3, SVG Export Plug-In . SVG Version: 6.00 Build 0)  -->
<svg version="1.1" id="Calque_1" xmlns="http://www.w3.org/2000/svg" xmlns:xlink="http://www.w3.org/1999/xlink" x="0px" y="0px"
	 viewBox="0 0 250 250" style="enable-background:new 0 0 250 250;" xml:space="preserve">
<style type="text/css">
	.st0{fill:url(#SVGID_1_);}
	.st1{fill:url(#SVGID_2_);}
	.st2{fill:url(#SVGID_3_);}
	.st3{fill:url(#SVGID_4_);}
	.st4{fill:url(#SVGID_5_);}
	.st5{fill:url(#SVGID_6_);}
	.st6{fill:url(#SVGID_7_);}
	.st7{fill:url(#SVGID_8_);}
</style>
<g>
	<g>
		<linearGradient id="SVGID_1_" gradientUnits="userSpaceOnUse" x1="-9.883142e-02" y1="63.4202" x2="184.6216" y2="235.2803">
			<stop  offset="0" style="stop-color:#E671DA"/>
			<stop  offset="1" style="stop-color:#A55BDB"/>
		</linearGradient>
		<path class="st0" d="M142,155.2c-0.2,0.3-0.2,0.8-0.2,1.5c0,0.6,0.1,1,0.4,1.4c0.3,0.3,0.7,0.5,1.2,0.5c1,0,1.8-0.4,2.5-1.2
			c0.7-0.9,1.2-1.4,1.5-1.4c0.4,0,0.7,0.3,1,0.9c0.2,0.5,0.4,1.1,0.4,1.8c0.1,2.4-0.7,4.7-2.3,7c-1.6,2.2-4.1,4.1-7.2,5.5
			c-3.1,1.4-6.9,2.1-11.3,2.1c-5.4,0-9.7-1.2-12.9-3.7c-3.2-2.5-4.8-5.9-4.9-10.1c0-3,0.7-6.4,2.2-10.2l6.8-17.7
			c0.4-1.1,0.6-1.9,0.6-2.6c0-1.1-0.4-1.9-1.1-2.5c-0.7-0.7-1.5-1-2.5-1c-1.4,0-2.8,0.6-4.3,1.8c-1.5,1.2-2.8,3.2-3.9,5.8l-6.8,22
			c-0.2,0.3-0.2,0.8-0.2,1.5c0,0.6,0.1,1,0.4,1.4c0.3,0.3,0.7,0.5,1.2,0.5c1,0,1.8-0.4,2.5-1.2c0.7-0.9,1.2-1.4,1.5-1.4
			c0.4,0,0.7,0.3,1,0.9c0.2,0.5,0.4,1.1,0.4,1.8c0.1,2.4-0.7,4.7-2.3,7c-1.6,2.2-4.1,4.1-7.2,5.5c-3.1,1.4-6.9,2.1-11.3,2.1
			c-5.4,0-9.7-1.2-12.9-3.7c-3.2-2.5-4.8-5.9-4.9-10.1c0-3,0.7-6.4,2.2-10.2l6.8-17.7c0.4-1.1,0.6-1.9,0.6-2.6
			c0-1.1-0.4-1.9-1.1-2.5c-0.7-0.7-1.5-1-2.5-1c-1.4,0-2.8,0.6-4.3,1.8c-1.5,1.1-2.7,3-3.7,5.7l-8.1,26.3c-0.3,0.9-0.5,1.8-0.5,2.6
			c0,1,0.2,1.8,0.6,2.5c0.4,0.6,1,1.2,1.7,1.8c0.6,0.5,1,0.9,1.2,1.4c0.2,0.4,0.3,0.9,0.1,1.5c-0.3,1.1-1.1,1.8-2.3,2.3
			s-3.2,0.7-5.8,0.7h-28c-2.1,0-3.6-0.3-4.5-1c-1-0.7-1.4-1.7-1.1-2.8c0.3-1,1.2-1.8,2.6-2.6c1.2-0.7,2.3-1.4,3.1-2.3
			c0.8-0.9,1.5-2.3,2.1-4.3L39,123.6c0.2-0.4,0.2-1,0.2-1.7c0-0.9-0.2-1.6-0.6-2.1c-0.3-0.5-0.9-1.1-1.7-1.8
			c-0.8-0.7-1.4-1.2-1.7-1.7c-0.3-0.5-0.4-1.1-0.1-2c0.5-1.9,3.1-3.5,7.7-4.9c4.7-1.5,9.5-2.2,14.6-2.2c4,0,7.2,1.1,9.5,3.3
			c2.4,2.2,3.5,5.2,3.4,9.1c3.4-4.7,6.9-7.9,10.6-9.7c3.8-1.8,7.8-2.7,12.2-2.7c4.8,0,8.6,1.4,11.5,4.2c3,2.7,4.7,6.3,5,10.7
			c3.5-5.6,7.3-9.4,11.3-11.5c4-2.2,8.4-3.3,13.1-3.3c5,0,9,1.5,12,4.5c3.1,3,4.7,7,4.7,11.8c0,2.5-0.4,5-1.2,7.5L142,155.2z"/>
		<linearGradient id="SVGID_2_" gradientUnits="userSpaceOnUse" x1="43.3864" y1="16.6809" x2="228.1069" y2="188.5411">
			<stop  offset="0" style="stop-color:#E671DA"/>
			<stop  offset="1" style="stop-color:#A55BDB"/>
		</linearGradient>
		<path class="st1" d="M217.9,107.1c3.6,0,6.5,1.5,8.6,4.4c2.2,2.9,3.3,6.8,3.3,11.8c0,4.3-0.8,9-2.3,14c-3,10.1-7.9,19.6-14.6,28.5
			c-6.6,8.9-14.3,16.1-23,21.5c-8.6,5.4-17.2,8.1-25.8,8.1c-4.3,0-7.9-0.7-11.1-2.2c-3-1.5-5.3-3.4-6.9-5.9
			c-1.6-2.5-2.5-5.1-2.5-7.9c0-1.2,0.2-2.6,0.6-4.1c0.7-2.3,2-4.1,3.7-5.3c1.7-1.2,3.8-1.8,6.1-1.8c3.8,0,6.8,1.3,9.2,3.8
			c2.5,2.6,4,6.2,4.7,10.7c5.2-0.2,10.1-2.5,14.5-6.8c-4.2-0.7-7.3-2.1-9.3-4.2c-2-2.1-3.3-5.4-4.1-9.8l-4.9-30.1
			c-0.2-1.6-0.6-2.6-1.1-3.2c-0.4-0.7-1-1-1.7-1c-0.6,0-1.3,0.3-2.1,0.9c-0.7,0.6-1.3,0.9-1.6,0.9c-0.7,0-1-0.7-1-2.1
			c0-1.1,0.2-2.4,0.6-3.7c1.5-4.7,4.2-8.6,8.2-11.8c4-3.3,8.7-4.9,14-4.9c5.2,0,9.1,1.6,11.5,4.7c2.5,3.1,4.2,7.9,4.9,14.4l3.7,27
			c0.2,2,1,3.1,2.2,3.1c1.5,0,3.2-1.3,5.2-3.9c2-2.7,3.9-6.5,5.8-11.4c-2.5-2.2-4.3-4.8-5.7-7.6c-1.3-2.9-2-5.9-2-9.2
			c0-2.5,0.3-4.8,1-6.9c1-3.3,2.5-5.7,4.5-7.4C212.9,108,215.2,107.1,217.9,107.1z"/>
	</g>
	<g>
		<linearGradient id="SVGID_3_" gradientUnits="userSpaceOnUse" x1="-59.0321" y1="123.6422" x2="125.6884" y2="295.5023">
			<stop  offset="0" style="stop-color:#E671DA"/>
			<stop  offset="1" style="stop-color:#A55BDB"/>
		</linearGradient>
		<path class="st2" d="M50,176.3c6.8,0,11.9,1,15.2,3.1c3.4,2,5.1,4.5,5.1,7.5c0,2.4-1,4.3-3,5.6c-2,1.3-4.6,1.9-7.8,1.9
			c-3,0-5.3-0.7-7-2.2s-2.5-3.3-2.5-5.4c0-1.3,0.4-2.7,1.2-4.2c-1.9,0-3.5,0.5-4.8,1.4c-1.3,0.9-2.3,2.4-3,4.7
			c-0.4,1.4-0.6,2.7-0.6,3.9c0,1.5,0.3,2.7,0.8,3.6c0.6,0.8,1.4,1.2,2.4,1.2h5.6c3.3,0,5,1,5,3c0,0.3-0.1,0.6-0.2,1.1
			c-0.4,1.4-1.2,2.4-2.4,3.1c-1.1,0.7-2.9,1-5.2,1h-2.9l-9.4,30.9c-0.2,0.8-0.3,1.4-0.3,2c0,0.8,0.2,1.5,0.5,2
			c0.3,0.4,0.8,0.9,1.3,1.3c0.4,0.4,0.8,0.8,1,1.1c0.2,0.3,0.2,0.6,0.1,1c-0.3,0.8-1,1.4-1.9,1.8c-1,0.4-2.4,0.6-4.4,0.6H11.2
			c-1.7,0-2.9-0.3-3.6-0.8c-0.8-0.6-1-1.3-0.8-2.2c0.3-0.8,0.9-1.4,2-2c1-0.5,1.7-1.1,2.4-1.8c0.6-0.7,1.2-1.8,1.6-3.3l7.4-24.4
			c0.3-1,0.5-1.9,0.5-3c0-1.3-0.3-2.3-0.9-3c-0.5-0.8-1.3-1.6-2.4-2.5c-0.7-0.6-1.2-1-1.6-1.4c-0.3-0.4-0.5-1-0.5-1.5
			c-0.1-1.2,0.3-2.1,1.2-2.6c1-0.5,2.7-0.8,5.3-0.8h2.4c-0.4-1.6-0.7-3.2-0.7-4.8c0-1.6,0.3-3.2,0.9-5c1.2-3.2,3.8-6,7.7-8.2
			C36.3,177.4,42.2,176.3,50,176.3z"/>
		<linearGradient id="SVGID_4_" gradientUnits="userSpaceOnUse" x1="-42.4567" y1="105.8265" x2="142.2637" y2="277.6866">
			<stop  offset="0" style="stop-color:#E671DA"/>
			<stop  offset="1" style="stop-color:#A55BDB"/>
		</linearGradient>
		<path class="st3" d="M87.6,196.3c8.6,0,15,1.7,19,5.2c4.1,3.5,6.2,8.1,6.2,13.7c0,1.9-0.3,4-0.8,6.4c-1.2,5.2-3.5,9.8-6.8,13.7
			c-3.3,3.9-7.4,6.9-12.2,9c-4.8,2.1-9.9,3.1-15.5,3.1c-8.8,0-15.4-1.7-19.6-5.2c-4.2-3.6-6.3-8.3-6.3-14.1c0-2,0.3-4.2,0.8-6.6
			c1.2-5,3.5-9.3,6.9-13.1c3.4-3.9,7.6-6.9,12.5-9C76.7,197.4,82,196.3,87.6,196.3z M87.3,204.8c-1.3,0-2.8,1.2-4.3,3.6
			c-1.5,2.3-3.2,6.8-5.2,13.4c-2,6.6-3,11.2-3,13.9c0,1.4,0.2,2.3,0.7,2.9c0.4,0.4,1,0.7,1.8,0.7c1.3,0.1,2.7-1,4.1-3.4
			c1.5-2.4,3.3-7.1,5.4-14.1c2-6.2,3-10.6,3-13.4c0-1.3-0.2-2.3-0.7-2.8C88.6,205,88.1,204.8,87.3,204.8z"/>
		<linearGradient id="SVGID_5_" gradientUnits="userSpaceOnUse" x1="-13.4604" y1="74.6604" x2="171.26" y2="246.5205">
			<stop  offset="0" style="stop-color:#E671DA"/>
			<stop  offset="1" style="stop-color:#A55BDB"/>
		</linearGradient>
		<path class="st4" d="M150.1,196.3c8.6,0,15,1.7,19,5.2c4.1,3.5,6.2,8.1,6.2,13.7c0,1.9-0.3,4-0.8,6.4c-1.2,5.2-3.5,9.8-6.8,13.7
			c-3.3,3.9-7.4,6.9-12.2,9c-4.8,2.1-9.9,3.1-15.5,3.1c-8.8,0-15.4-1.7-19.6-5.2c-4.2-3.6-6.3-8.3-6.3-14.1c0-2,0.3-4.2,0.8-6.6
			c1.2-5,3.5-9.3,6.9-13.1c3.4-3.9,7.6-6.9,12.5-9C139.2,197.4,144.5,196.3,150.1,196.3z M149.8,204.8c-1.3,0-2.8,1.2-4.3,3.6
			c-1.5,2.3-3.2,6.8-5.2,13.4c-2,6.6-3,11.2-3,13.9c0,1.4,0.2,2.3,0.7,2.9c0.4,0.4,1,0.7,1.8,0.7c1.3,0.1,2.7-1,4.1-3.4
			c1.5-2.4,3.3-7.1,5.4-14.1c2-6.2,3-10.6,3-13.4c0-1.3-0.2-2.3-0.7-2.8C151.1,205,150.6,204.8,149.8,204.8z"/>
		<linearGradient id="SVGID_6_" gradientUnits="userSpaceOnUse" x1="23.1331" y1="35.3286" x2="207.8535" y2="207.1887">
			<stop  offset="0" style="stop-color:#E671DA"/>
			<stop  offset="1" style="stop-color:#A55BDB"/>
		</linearGradient>
		<path class="st5" d="M229,233c-0.1,0.5-0.2,0.9-0.2,1c0,0.4,0.1,0.8,0.4,1c0.3,0.3,0.6,0.4,1,0.4c0.8,0,1.4-0.3,1.9-1
			c0.6-0.7,1-1,1.1-1c0.3,0,0.6,0.2,0.8,0.7c0.2,0.4,0.3,1,0.3,1.5c0.1,1.7-0.6,3.5-2,5.2c-1.3,1.8-3.1,3.2-5.4,4.4
			c-2.3,1.1-4.8,1.7-7.4,1.7c-3.2,0-5.9-0.6-8.3-1.8c-2.3-1.2-4-2.8-4.9-4.8c-1.7,2.2-3.7,3.9-5.9,5c-2.2,1.1-4.6,1.6-7,1.6
			c-2.9,0-5.7-0.7-8.2-2.2c-2.5-1.5-4.5-3.5-6-6.2c-1.5-2.7-2.2-5.8-2.2-9.2c0-5.8,1.1-11.2,3.2-16.3c2.2-5.1,5.3-9.3,9.2-12.4
			c3.9-3.2,8.4-4.8,13.4-4.8c2.7,0,5,0.3,7,1c2,0.6,3.7,1.6,5.3,2.9l3.2-10.7c0.2-0.6,0.3-1,0.3-1.4c0-0.7-0.2-1.3-0.6-1.7
			c-0.3-0.4-0.8-0.9-1.3-1.3c-0.6-0.5-1.1-1-1.4-1.3c-0.3-0.4-0.3-0.9-0.1-1.5c0.4-1.5,2.4-2.7,6-3.8c3.6-1.1,7.4-1.6,11.3-1.6
			c3.7,0,6.4,0.7,8.1,2.1c1.8,1.4,2.7,3.3,2.7,5.7c0,1.4-0.2,2.8-0.7,4.1L229,233z M213.1,206.2c-1-0.9-2.1-1.3-3.3-1.3
			c-1.8,0-3.7,1.4-5.4,4.1s-3.2,6-4.3,9.9c-1.1,3.9-1.6,7.4-1.5,10.5c0,3.5,1.1,5.2,3.4,5.2c0.8,0,1.5-0.3,2.1-1
			c0.6-0.7,1.1-1.8,1.6-3.3L213.1,206.2z"/>
	</g>
	<g>
		<linearGradient id="SVGID_7_" gradientUnits="userSpaceOnUse" x1="47.1861" y1="37.1698" x2="202.1854" y2="181.3781">
			<stop  offset="0" style="stop-color:#E671DA"/>
			<stop  offset="1" style="stop-color:#A55BDB"/>
		</linearGradient>
		<path class="st6" d="M87.2,31c12.3,0,21.3,2.5,27.1,7.5c5.9,5,8.8,11.5,8.8,19.5c0,2.7-0.4,5.7-1.1,9.1
			c-1.7,7.4-4.9,13.9-9.6,19.5c-4.7,5.5-10.5,9.8-17.4,12.9c-6.8,3-14.2,4.5-22.1,4.5c-12.6,0-21.9-2.5-27.9-7.5
			c-6-5.1-9-11.8-9-20.1c0-2.8,0.4-5.9,1.1-9.4c1.7-7.1,5-13.3,9.8-18.7c4.9-5.5,10.8-9.8,17.8-12.7C71.8,32.5,79.3,31,87.2,31z
			 M86.8,43c-1.9,0-3.9,1.7-6.1,5.2c-2.1,3.3-4.6,9.7-7.5,19.1c-2.9,9.4-4.3,16-4.3,19.8c0,2,0.3,3.3,0.9,4.1
			c0.6,0.6,1.5,0.9,2.6,0.9c1.9,0.2,3.8-1.4,5.8-4.9c2.1-3.4,4.7-10.1,7.7-20.1c2.8-8.8,4.2-15.1,4.2-19.1c0-1.9-0.3-3.2-0.9-3.9
			C88.7,43.4,87.9,43,86.8,43z"/>
		<linearGradient id="SVGID_8_" gradientUnits="userSpaceOnUse" x1="84.8785" y1="-3.3431" x2="239.8779" y2="140.8651">
			<stop  offset="0" style="stop-color:#E671DA"/>
			<stop  offset="1" style="stop-color:#A55BDB"/>
		</linearGradient>
		<path class="st7" d="M204.3,84c-0.2,0.4-0.3,0.9-0.3,1.6c0,0.6,0.1,1.1,0.4,1.5c0.4,0.4,0.8,0.5,1.4,0.5c1.1,0,2-0.5,2.7-1.4
			c0.8-1,1.4-1.5,1.6-1.5c0.5,0,0.8,0.3,1.1,0.9c0.3,0.5,0.4,1.2,0.4,2c0.1,2.6-0.8,5.2-2.6,7.7c-1.8,2.4-4.5,4.5-8,6.1
			c-3.4,1.5-7.6,2.3-12.5,2.3c-6,0-10.7-1.4-14.2-4.1c-3.5-2.8-5.3-6.5-5.4-11.1c0-3.3,0.8-7.1,2.4-11.3l7.5-19.5
			c0.5-1.2,0.7-2.1,0.7-2.8c0-1.2-0.4-2.1-1.2-2.7c-0.7-0.7-1.6-1.1-2.7-1.1c-1.7,0-3.5,0.8-5.3,2.4c-1.7,1.5-3.1,4.1-4.2,7.6v-0.3
			l-8.5,27.5c-0.3,1.1-0.4,2-0.4,2.8c0,1.2,0.2,2.1,0.7,2.8c0.5,0.6,1.1,1.3,1.9,1.9c0.6,0.6,1.1,1.2,1.4,1.6
			c0.3,0.4,0.3,0.9,0.1,1.5c-0.5,1.2-1.4,2-2.7,2.6c-1.4,0.5-3.4,0.8-6.2,0.8h-30.9c-2.4,0-4.1-0.4-5.2-1.1
			c-1.1-0.8-1.4-1.9-1.1-3.1c0.4-1.1,1.3-2,2.8-2.8c1.4-0.7,2.5-1.6,3.4-2.6c0.9-1,1.7-2.6,2.3-4.7l20.6-67.7c0.3-0.8,0.4-1.5,0.4-2
			c0-1-0.3-1.8-0.8-2.4c-0.5-0.6-1.1-1.3-1.9-1.9c-0.9-0.7-1.6-1.4-2-1.9c-0.4-0.5-0.4-1.3-0.1-2.2c0.5-2.1,3.4-3.9,8.5-5.4
			c5.2-1.5,10.5-2.3,16.1-2.3c5.2,0,9.1,1,11.5,3c2.5,2,3.8,4.7,3.8,8.1c0,2-0.3,3.9-0.9,5.8l-7.3,23.9c3.5-4.6,7.2-7.8,11.1-9.6
			c4-1.8,8.3-2.7,12.9-2.7c5.5,0,9.9,1.7,13.3,5c3.4,3.3,5.2,7.7,5.2,13c0,2.8-0.5,5.6-1.4,8.3L204.3,84z"/>
	</g>
</g>
</svg>
